<svg xmlns="http://www.w3.org/2000/svg" width="24" height="24" fill="none" viewBox="0 0 24 24">
  <g clip-path="url(#a)">
    <path fill="#000" d="M22.313.375H1.688c-.75 0-1.313.6-1.313 1.313v20.625c0 .75.6 1.312 1.313 1.312h11.1v-9.037h-3V11.1h3V8.512c0-3 1.8-4.65 4.5-4.65.9 0 1.8.038 2.7.15v3.113h-1.8c-1.425 0-1.726.675-1.726 1.688v2.212h3.413l-.488 3.525h-3v8.925h5.925c.75 0 1.313-.563 1.313-1.313V1.689c-.038-.75-.637-1.313-1.313-1.313Z"/>
  </g>
  <defs>
    <clipPath id="a">
      <path fill="#fff" d="M0 0h24v24H0z"/>
    </clipPath>
  </defs>
</svg>
