<svg xmlns="http://www.w3.org/2000/svg" width="264" height="83" fill="none" viewBox="0 0 264 83">
  <path fill="#000" d="M0 70.49V48.005h10.447v21.138c0 2.697.222 3.373 1.574 3.373 1.462 0 1.796-.676 1.796-3.373V50.257c0-1.01-.222-2.021-.334-2.586-.564-1.233-2.02-2.14-5.279-4.383C2.138 39.238.453 36.764.342 31.147V11.13C.342 4.05 4.61 0 12.473 0s11.345 3.82 11.345 10.008v21.696h-9.882V12.483c0-2.586-.334-3.15-1.685-3.15-1.233 0-1.686.564-1.686 3.15v17.312c0 .787 0 1.463.334 2.02.453 1.011 1.909 2.14 6.178 5.172 5.279 3.596 6.964 5.736 6.964 11.918v21.473c0 8.879-3.935 12.14-12.02 12.14C3.935 82.518 0 79.257 0 70.49Zm42.239 11.24H31.793v-70.6h-5.955V.788h22.467V11.13h-6.066v70.6Zm15.168-32.602L49.99.788h10.335l1.908 19.11.676 15.068.899-15.068L65.716.788H75.94l-7.752 48.117V81.73H57.4V49.128h.008ZM77.625.788h10.67v70.266h9.325V81.73H77.625V.788ZM100.76 81.73V.789h17.753V11.13h-7.418v24.512h7.076v10.343h-7.076v25.292h7.64V81.73H100.76Zm39.915.788c-8.085 0-12.02-3.261-12.02-12.14V48.905c0-6.182 1.685-8.322 6.964-11.918 4.269-3.039 5.732-4.161 6.177-5.171.335-.565.335-1.234.335-2.021V12.482c0-2.585-.453-3.15-1.686-3.15-1.351 0-1.685.565-1.685 3.15v19.222h-9.89V10.008C128.87 3.826 132.686 0 140.215 0c7.863 0 12.132 4.05 12.132 11.13v20.01c-.111 5.624-1.797 8.09-7.863 12.14-3.259 2.252-4.714 3.15-5.279 4.384-.111.565-.334 1.575-.334 2.586v18.887c0 2.697.334 3.373 1.797 3.373 1.351 0 1.574-.676 1.574-3.373V47.998h10.446v22.484c0 8.767-3.704 12.029-12.02 12.029l.007.007Zm20.225-.788L154.5.789h10.001l2.139 40.137.222 10.796.787-10.796L171.02.788h6.4l3.148 40.137.899 11.353.111-11.353L184.05.788h9.66l-6.742 80.943h-8.872l-3.594-39.008-.453-9.555-.452 9.555-3.483 39.008H160.9Zm35.156-9.889h3.935V10.684h-3.935V.788h18.198v9.889h-3.935v61.164h3.935v9.897h-18.198v-9.897Zm31.57 9.889h-10.447V.789h12.697c8.538 0 12.132 3.819 12.132 10.454v31.37c0 7.08-3.483 11.694-12.021 11.694h-2.361v27.432-.007Zm0-37.209h1.01c1.908 0 2.695-.565 2.695-2.474V12.029c0-1.798-.564-2.362-2.695-2.362h-1.01V44.52Zm18.086 37.209V.789h17.753V11.13h-7.417v24.512h7.075v10.343h-7.075v25.292h7.64V81.73h-17.976Z"/>
</svg>
