<svg xmlns="http://www.w3.org/2000/svg" width="54" height="86" fill="none" viewBox="0 0 54 86">
  <path fill="#000" d="m48.542 63.392-11.783-7.69 10.305-6.717h-.111c.17-.089.356-.17.542-.267l.037-.023 1.64-1.07a12.239 12.239 0 0 0 4.656-7.957V11.486c0-.052-.015-.097-.022-.149-.92-5.87-6-10.365-12.132-10.365-6.133 0-11.204 4.495-12.132 10.365a.513.513 0 0 0-.022.149v14.087h10.15V13.269c0-1.107.898-2.006 2.004-2.006 1.106 0 2.005.899 2.005 2.006v24.6c0 .595-.245 1.123-.654 1.48l-.579.378h-.015l-9.837 6.435-3.869 2.511.015.015-12.488 8.136v-.015l-9.385 6.122-1.247.803-.06.052A12.258 12.258 0 0 0 .853 75.6c.163 1.025.453 2.006.876 2.934a12.263 12.263 0 0 0 9.467 7.223h32.26a12.25 12.25 0 0 0 9.466-7.245 11.38 11.38 0 0 0 .862-2.905c.111-.654.17-1.33.17-2.006 0-4.243-2.153-7.987-5.42-10.201l.008-.008Zm-4.953 10.81a1.934 1.934 0 0 1-.26.52 1.153 1.153 0 0 1-.244.298 2.01 2.01 0 0 1-1.426.595H12.992a2.02 2.02 0 0 1-2.02-2.007c0-.69.342-1.292.877-1.642l.06-.052 10.149-6.62 5.309-3.447 5.256 3.425s-.015.015-.015.022l10.15 6.62.06.052s.022.015.037.023c.089.06.163.126.237.2.09.075.17.171.238.268.014 0 .014.015.014.022.164.208.26.446.305.713.037.127.052.268.052.409 0 .208-.037.409-.097.602h-.014ZM5.138 47.337l.037.037 2.317 1.5.222.112h-.052l6.623 4.325 9.4-6.138-1.589-1.033-9.763-6.375-.81-.527a2 2 0 0 1-.542-1.367V13.269A2.02 2.02 0 0 1 13 11.263c1.106 0 2.005.899 2.005 2.006v12.297h10.149v-14.08c0-.052-.015-.097-.022-.149C24.196 5.467 19.125.972 12.992.972 6.86.972 1.774 5.467.853 11.337a.515.515 0 0 0-.022.149v28.167a12.187 12.187 0 0 0 4.313 7.675l-.007.008Z"/>
</svg>
