<svg xmlns="http://www.w3.org/2000/svg" width="24" height="24" fill="none" viewBox="0 0 24 24">
  <g clip-path="url(#a)">
    <path fill="#000" d="M12.037 16.35a4.35 4.35 0 1 0 0-8.7 4.35 4.35 0 0 0 0 8.7Z"/>
    <path fill="#000" d="M16.762.375H7.239A6.866 6.866 0 0 0 .375 7.237v9.45c0 3.863 3.075 6.938 6.862 6.938h9.45c3.863 0 6.938-3.075 6.938-6.863V7.239A6.866 6.866 0 0 0 16.762.375ZM12.037 17.7c-3.187 0-5.7-2.587-5.7-5.7s2.55-5.7 5.7-5.7C15.15 6.3 17.7 8.887 17.7 12s-2.512 5.7-5.662 5.7Zm7.876-10.875c-.375.412-.938.638-1.576.638a2.345 2.345 0 0 1-1.575-.638c-.412-.413-.637-.938-.637-1.575 0-.638.225-1.125.637-1.575.413-.45.938-.675 1.575-.675.563 0 1.163.225 1.576.638.375.487.637 1.05.637 1.65a2.478 2.478 0 0 1-.637 1.537Z"/>
    <path fill="#000" d="M18.376 4.35c-.488 0-.9.412-.9.9 0 .487.412.9.9.9.487 0 .9-.413.9-.9 0-.488-.375-.9-.9-.9Z"/>
  </g>
  <defs>
    <clipPath id="a">
      <path fill="#fff" d="M0 0h24v24H0z"/>
    </clipPath>
  </defs>
</svg>
