<svg xmlns="http://www.w3.org/2000/svg" width="347" height="85" fill="none" viewBox="0 0 347 85">
  <g clip-path="url(#a)">
    <path fill="#000" d="M83.32 72.97V50.488h10.446v21.139c0 2.697.223 3.373 1.574 3.373 1.463 0 1.797-.676 1.797-3.373V52.739c0-1.01-.223-2.021-.334-2.586-.564-1.233-2.02-2.14-5.279-4.384-6.066-4.05-7.751-6.523-7.863-12.14V13.612c0-7.081 4.27-11.13 12.132-11.13 7.863 0 11.345 3.819 11.345 10.008v21.696h-9.882V14.964c0-2.585-.334-3.15-1.685-3.15-1.233 0-1.686.565-1.686 3.15v17.312c0 .788 0 1.464.334 2.021.453 1.01 1.908 2.14 6.178 5.172 5.279 3.596 6.964 5.736 6.964 11.917V72.86c0 8.88-3.935 12.141-12.02 12.141-8.086 0-12.021-3.262-12.021-12.03Zm42.239 11.242h-10.447v-70.6h-5.954V3.269h22.467v10.343h-6.066v70.6Zm15.168-32.602L133.31 3.27h10.335l1.908 19.11.676 15.067.899-15.068 1.908-19.11h10.223l-7.751 48.117v32.826H140.72V51.61h.007Zm20.218-48.34h10.669v70.265h9.325v10.677h-19.994V3.27Zm23.135 80.942V3.27h17.753v10.343h-7.418v24.512h7.076v10.342h-7.076v25.292h7.64v10.454H184.08Zm39.915.788c-8.085 0-12.02-3.262-12.02-12.14V51.385c0-6.181 1.685-8.321 6.964-11.918 4.269-3.038 5.732-4.16 6.177-5.17.335-.566.335-1.234.335-2.022V14.964c0-2.585-.453-3.15-1.686-3.15-1.351 0-1.685.565-1.685 3.15v19.222h-9.89V12.49c0-6.182 3.816-10.008 11.345-10.008 7.863 0 12.132 4.049 12.132 11.13V33.62c-.111 5.625-1.797 8.091-7.863 12.14-3.259 2.252-4.715 3.151-5.279 4.384-.111.565-.334 1.576-.334 2.586v18.887c0 2.698.334 3.374 1.797 3.374 1.351 0 1.574-.677 1.574-3.374V50.48h10.446v22.483c0 8.768-3.704 12.03-12.02 12.03l.007.007Zm20.225-.788-6.4-80.943h10.001l2.138 40.138.223 10.795.787-10.795 3.371-40.138h6.4l3.148 40.138.899 11.353.111-11.353 2.472-40.138h9.66l-6.742 80.943h-8.872l-3.594-39.008-.453-9.554-.453 9.555-3.482 39.007h-9.214Zm35.156-9.889h3.935V13.166h-3.935V3.27h18.198v9.89h-3.935v61.164h3.935v9.897h-18.198v-9.897Zm31.57 9.889h-10.447V3.27h12.696c8.539 0 12.132 3.82 12.132 10.454v31.37c0 7.08-3.482 11.695-12.02 11.695h-2.361V84.22v-.008Zm0-37.21h1.01c1.908 0 2.695-.564 2.695-2.474V14.511c0-1.798-.565-2.363-2.695-2.363h-1.01v34.855Zm18.086 37.21V3.27h17.753v10.343h-7.418v24.512h7.076v10.342h-7.076v25.292h7.64v10.454h-17.975Z"/>
  </g>
  <defs>
    <clipPath id="a">
      <path fill="#fff" d="M0 0h347v85H0z"/>
    </clipPath>
  </defs>
</svg>
