<svg xmlns="http://www.w3.org/2000/svg" width="24" height="24" fill="none" viewBox="0 0 24 24">
  <path fill="#000" d="m21.038 5.737 1.424-1.8c.413-.487.526-.862.563-1.05-1.125.675-2.175.9-2.85.9h-.262l-.15-.15a4.842 4.842 0 0 0-3.226-1.2c-2.624 0-4.687 2.175-4.687 4.688 0 .15 0 .375.037.525L12 8.4l-.787-.037c-4.8-.15-8.738-4.275-9.375-4.988-1.05 1.875-.45 3.675.187 4.8l1.275 2.1L1.275 9.15c.038 1.575.638 2.813 1.8 3.713l1.013.75-1.013.412c.637 1.912 2.063 2.7 3.112 3l1.388.375-1.313.9c-2.1 1.5-4.724 1.387-5.887 1.275C2.737 21.225 5.55 21.6 7.5 21.6c1.463 0 2.55-.15 2.813-.263C20.813 18.863 21.3 9.487 21.3 7.613V7.35l.225-.15c1.275-1.2 1.8-1.838 2.1-2.213-.113.038-.262.113-.413.15l-2.174.6Z"/>
</svg>
